<?xml version="1.0" encoding="utf-8"?>
<!-- Generator: Adobe Illustrator 27.0.0, SVG Export Plug-In . SVG Version: 6.00 Build 0)  -->
<svg version="1.1" id="Camada_2_00000120561083708733434740000004317699648478640004_"
	 xmlns="http://www.w3.org/2000/svg" xmlns:xlink="http://www.w3.org/1999/xlink" x="0px" y="0px" viewBox="0 0 249.5 41.5"
	 style="enable-background:new 0 0 249.5 41.5;" xml:space="preserve">
<style type="text/css">
	.st0{fill:#FFFFFF;}
</style>
<g id="Camada_1-2">
	<g>
		<path class="st0" d="M39.3,37.6C41.4,36,43,34,43.9,32c1.4-2.9,2.2-6,2.3-9.3c0.3-6.7,0.2-15.3,0.2-16c0.1-1.8-1-3.3-2.5-3.7
			c-1.4-0.4-2.8,0.3-3.5,1.8c-0.3,0.6-0.5,1.2-0.8,1.6c-1,2.1-1.5,3.1-2.6,5c-0.3,0.5-0.8,0.9-1.2,1c-0.5,0.1-1-0.1-1.6-0.5
			c-0.9-0.7-3.4-2.7-6.1-4.9c-3.6-2.9-6.9-5.6-7.8-6.2c-2-1.4-3.7-0.8-4.6,0.1c-1.1,1.2-1.1,3.1,0.1,4.6l6.1,7.9
			c0.3,0.4,0.4,0.8,0.3,0.9c-0.1,0.2-0.6,0.3-1.4,0c-1.8-0.7-5-2.1-7.6-3.3c-1.7-0.8-3.2-1.4-4-1.8c-2.1-0.9-3.7,0-4.4,1.2
			c-0.8,1.4-0.3,3.1,1.1,4.1c3.6,2.6,9.2,6.8,9.9,7.5c0.3,0.3,0.4,0.6,0.3,0.8c-0.1,0.2-0.4,0.3-1,0.2c-0.5-0.1-1.7-0.2-3-0.4
			C9.4,22.4,5.7,22,4,21.8c-2.4-0.2-3.8,1.2-4,2.7c-0.2,1.4,0.6,3.2,2.7,3.7c0.9,0.2,3.2,1,5.5,1.7c2.8,0.9,4.7,1.5,6,1.8
			c0.4,0.1,0.6,0.3,0.6,0.5c0,0.2-0.2,0.5-0.8,0.7c-2,0.5-5.1,1.8-7.8,2.3c-2.2,0.5-3.1,2.2-3,3.6c0.2,1.9,1.9,2.9,3.6,2.8
			c2.8-0.1,13.1-1.2,13.6-1.2c0.7-0.1,1.2-0.7,1.1-1.3s-0.7-1.2-1.4-1.1C20,37.8,9.5,39,6.8,39c-0.7,0-1-0.3-1.1-0.6
			c-0.1-0.4,0.3-0.8,1-0.9c2.3-0.5,5.7-1.7,8-2.3c1.6-0.4,2.6-1.7,2.6-3.1c0-1.4-1-2.5-2.5-2.9c-1.1-0.3-3.2-0.9-5.8-1.7
			c-2.4-0.8-4.7-1.5-5.7-1.8c-0.7-0.2-0.9-0.6-0.9-0.9c0.1-0.4,0.6-0.7,1.3-0.6c1.7,0.1,5.4,0.6,8.1,0.9c1.4,0.2,2.5,0.3,3.1,0.4
			c1.6,0.2,2.9-0.4,3.4-1.6c0.5-1.1,0.2-2.6-0.8-3.5c-1-1-7.8-6-10.2-7.8c-0.5-0.3-0.5-0.7-0.4-0.9c0.2-0.3,0.7-0.4,1.3-0.1
			c0.8,0.3,2.2,1,3.9,1.7c2.6,1.2,5.8,2.6,7.7,3.3c1.7,0.7,3.4,0.3,4.3-0.8c0.6-0.9,0.9-2.3-0.3-3.9L17.8,4
			c-0.5-0.6-0.5-1.2-0.2-1.4c0.2-0.2,0.8-0.2,1.4,0.3c0.8,0.5,4.4,3.5,7.6,6.1c2.7,2.2,5.2,4.2,6.2,4.9c1.5,1.1,2.8,1.1,3.6,0.9
			c1.2-0.2,2.2-1.1,2.9-2.2c1.1-2,1.6-3.1,2.6-5.2c0.2-0.5,0.5-1,0.8-1.6c0.1-0.3,0.4-0.6,0.7-0.5C43.7,5.4,44,5.8,44,6.6
			c0,0,0,0.1,0,0.1c0,0.1,0.2,9-0.2,15.8c-0.2,3-0.8,5.8-2.1,8.4c-1.7,3.5-5.5,7.1-10.4,7.2c-3,0.1-5.5-0.8-7.1-2.7
			c-2.6-2.8-3.2-6.6-2.6-9c0.7-2.6,3-5.7,6.1-6.9c1.9-0.7,4.6-1.1,7.2,1.2c3.6,3.1,2.6,7.2,0.7,9.5c-1.8,2.2-5,3.4-7.1,1.7
			c-0.9-0.7-2.9-3.1-0.9-5.7c1-1.4,2.9-1.9,3.7-1.3c0.6,0.4,0.8,0.9,0.6,1.4c-0.2,0.4-0.7,0.9-1.2,0.8c-0.7-0.1-1.3,0.4-1.4,1
			s0.4,1.3,1,1.4c1.6,0.2,3.2-0.7,3.9-2.3c0.6-1.6,0.1-3.3-1.4-4.3c-1.7-1.2-5-1-7.1,1.8c-1.7,2.2-2.3,6.2,1.4,9.1
			c1.5,1.2,3.6,1.5,5.7,1c1.8-0.5,3.6-1.4,4.9-3c2.8-3.3,3.7-8.9-0.9-12.9c-2.7-2.4-6.1-3-9.6-1.6c-4,1.5-6.9,5.2-7.8,8.7
			c-0.9,3.5,0.1,7.6,3.2,11.1c2.2,2.4,5.2,3.6,9,3.5C34.4,40.4,37.1,39.3,39.3,37.6L39.3,37.6z"/>
		<g>
			<path class="st0" d="M55.9,34.2V5.6c0-1,0.8-1.8,1.8-1.8s1.8,0.8,1.8,1.8v28h6.2c1,0,1.8,0.7,1.8,1.7s-0.8,1.7-1.8,1.7h-6.9
				C56.8,37.1,55.9,36.2,55.9,34.2L55.9,34.2z"/>
			<path class="st0" d="M72.1,35.4V5.6c0-1,0.8-1.8,1.8-1.8s1.8,0.8,1.8,1.8v29.7c0,1-0.8,1.8-1.8,1.8S72.1,36.4,72.1,35.4z"/>
			<path class="st0" d="M96.9,27c0,6.6-2.4,10.1-7.1,10.1h-4.4c-2,0-2.9-0.8-2.9-2.8V6.9c0-2,0.8-2.8,2.9-2.8h3.9c4.5,0,7,2.6,7,7.9
				c0,3.4-0.7,5.8-2.5,6.9C95.9,20.3,96.9,22.6,96.9,27L96.9,27z M86,17.2h2.8c2.9,0,4.1-1.8,4.1-5.1c0-3.1-1-4.9-3.8-4.9h-3V17.2z
				 M93.3,26.9c0-4.5-1.4-6.3-4.3-6.3h-3v13.3h3.1C92.4,33.9,93.3,31.5,93.3,26.9L93.3,26.9z"/>
			<path class="st0" d="M113.2,22.2c1.3,0.8,2.7,2.7,2.7,5.5v7.7c0,1-0.8,1.8-1.8,1.8s-1.8-0.8-1.8-1.8v-6.7c0-2.7-1.4-4.8-3.7-4.8
				H106v11.5c0,1-0.8,1.8-1.8,1.8s-1.8-0.8-1.8-1.8V6.9c0-2,0.8-2.8,2.9-2.8h3.2c4.7,0,7.5,3.1,7.5,8.8v2.2
				C116,18.3,115.1,20.7,113.2,22.2L113.2,22.2z M112.5,14.3v-0.7c0-4.2-1.3-6.3-4.3-6.3H106v13.3h2.1
				C111.2,20.6,112.5,18.5,112.5,14.3L112.5,14.3z"/>
			<path class="st0" d="M135.9,11.3v24.1c0,1-0.8,1.8-1.8,1.8s-1.8-0.8-1.8-1.8V25.2h-7v10.2c0,1-0.8,1.8-1.8,1.8s-1.8-0.8-1.8-1.8
				V11.3c0-4.8,2.4-7.7,7.1-7.7C133.5,3.6,135.9,6.5,135.9,11.3L135.9,11.3z M132.3,21.9v-10c0-3.5-1.2-4.9-3.5-4.9
				s-3.5,1.4-3.5,4.9v10L132.3,21.9L132.3,21.9z"/>
			<path class="st0" d="M140.9,29.4c0-2.1,0.5-3.7,0.8-4.4c0.5-1.1,1.5-1.5,2.5-1.2c0.9,0.3,1.2,1.4,0.9,2.4c-0.4,1.1-0.6,1.9-0.6,3
				c0,2.9,1.4,4.8,3.8,4.8s3.8-1.7,3.8-6.4c0-3.8-1-5.8-4.1-7.8l-1.8-1.2c-3.1-2-4.5-4.1-4.5-7.9c0-4.3,2.8-7.1,6.8-7.1
				s6.6,2.4,6.6,7.1v0.4c0,1.1-0.8,1.8-1.8,1.8s-1.8-0.7-1.8-1.8v-0.3c0-2.9-1.3-3.8-3.1-3.8c-2,0-3.3,1.6-3.3,3.8s0.8,3.4,2.6,4.6
				l1.8,1.2c4.4,2.8,6,5.4,6,10.8c0,7.4-3.2,10-7.6,10S140.8,34.4,140.9,29.4L140.9,29.4z"/>
			<path class="st0" d="M174.3,5.6v3.9c0,2.4-0.3,4.7-0.9,7.9c-1.2,7.4-2.3,12.3-3.5,17.3c-0.4,1.6-1.2,2.5-2.6,2.5
				s-2.4-0.9-2.7-2.5c-1.1-5-2.2-10-3.5-17.3c-0.6-3.2-0.9-5.5-0.9-7.9V5.6c0-0.9,0.9-1.8,1.8-1.8s1.8,0.8,1.8,1.8v3.1
				c0,1.4,0.2,4.9,0.9,8.7c1.1,6.2,1.9,10.8,2.7,15.5c0.9-4.7,1.6-9.3,2.5-15.5c0.6-3.7,0.9-7.3,0.9-8.7V5.6c0-0.9,0.8-1.8,1.8-1.8
				S174.3,4.6,174.3,5.6L174.3,5.6z"/>
			<path class="st0" d="M192.1,35.4c0,0.9-0.8,1.7-1.8,1.7H183c-2,0-2.9-0.8-2.9-2.8V6.9c0-2,0.9-2.8,2.9-2.8h7.3
				c0.9,0,1.8,0.7,1.8,1.7s-0.8,1.7-1.8,1.7h-6.6v9.9h5.9c0.9,0,1.8,0.7,1.8,1.6s-0.8,1.6-1.8,1.6h-5.9v13.2h6.6
				C191.2,33.8,192.1,34.5,192.1,35.4L192.1,35.4z"/>
			<path class="st0" d="M208.2,22.2c1.3,0.8,2.7,2.7,2.7,5.5v7.7c0,1-0.8,1.8-1.8,1.8s-1.8-0.8-1.8-1.8v-6.7c0-2.7-1.4-4.8-3.7-4.8
				h-2.5v11.5c0,1-0.8,1.8-1.8,1.8s-1.8-0.8-1.8-1.8V6.9c0-2,0.9-2.8,2.9-2.8h3.2c4.7,0,7.5,3.1,7.5,8.8v2.2
				C211,18.3,210.1,20.7,208.2,22.2L208.2,22.2z M207.5,14.3v-0.7c0-4.2-1.3-6.3-4.3-6.3h-2.1v13.3h2.1
				C206.2,20.6,207.5,18.5,207.5,14.3L207.5,14.3z"/>
			<path class="st0" d="M215.6,29.4c0-2.1,0.5-3.7,0.8-4.4c0.5-1.1,1.5-1.5,2.5-1.2c0.9,0.3,1.2,1.4,0.9,2.4c-0.4,1.1-0.6,1.9-0.6,3
				c0,2.9,1.4,4.8,3.8,4.8s3.8-1.7,3.8-6.4c0-3.8-1-5.8-4.1-7.8l-1.8-1.2c-3.1-2-4.5-4.1-4.5-7.9c0-4.3,2.8-7.1,6.8-7.1
				s6.6,2.4,6.6,7.1v0.4c0,1.1-0.8,1.8-1.8,1.8s-1.8-0.7-1.8-1.8v-0.3c0-2.9-1.3-3.8-3.1-3.8c-2,0-3.3,1.6-3.3,3.8s0.8,3.4,2.6,4.6
				l1.8,1.2c4.4,2.8,6,5.4,6,10.8c0,7.4-3.2,10-7.6,10S215.6,34.4,215.6,29.4L215.6,29.4z"/>
			<path class="st0" d="M235.3,29.7V11.5c0-4.8,2.4-7.7,7.1-7.7s7.1,3,7.1,7.7v18.2c0,4.8-2.4,7.7-7.1,7.7S235.3,34.5,235.3,29.7z
				 M245.9,29.1v-17c0-3.5-1.2-4.9-3.5-4.9s-3.5,1.4-3.5,4.9v17c0,3.5,1.2,4.9,3.5,4.9S245.9,32.6,245.9,29.1L245.9,29.1z"/>
		</g>
	</g>
</g>
</svg>
